<svg width="24" height="24" viewBox="0 0 24 24" fill="none" xmlns="http://www.w3.org/2000/svg">
<path fill-rule="evenodd" clip-rule="evenodd" d="M20.8066 7.62357L20.1842 6.54348C19.6576 5.62956 18.4907 5.31428 17.5755 5.83867V5.83867C17.1399 6.0953 16.6201 6.16811 16.1307 6.04104C15.6413 5.91398 15.2226 5.59747 14.9668 5.16133C14.8023 4.8841 14.7139 4.56835 14.7105 4.246V4.246C14.7254 3.72918 14.5304 3.22836 14.17 2.85763C13.8096 2.48689 13.3145 2.27782 12.7975 2.27803H11.5435C11.0369 2.27803 10.5513 2.47987 10.194 2.8389C9.83667 3.19793 9.63715 3.68455 9.63959 4.19108V4.19108C9.62458 5.23688 8.77246 6.07677 7.72654 6.07666C7.40419 6.07331 7.08844 5.9849 6.81121 5.82037V5.82037C5.89604 5.29597 4.72909 5.61125 4.20252 6.52517L3.53432 7.62357C3.00839 8.53635 3.31938 9.70256 4.22998 10.2323V10.2323C4.82188 10.574 5.18651 11.2055 5.18651 11.889C5.18651 12.5725 4.82188 13.204 4.22998 13.5458V13.5458C3.32054 14.0719 3.00921 15.2353 3.53432 16.1453V16.1453L4.1659 17.2346C4.41263 17.6797 4.82658 18.0082 5.31617 18.1474C5.80576 18.2865 6.33062 18.2249 6.7746 17.976V17.976C7.21106 17.7213 7.73117 17.6515 8.21932 17.7822C8.70747 17.9128 9.12321 18.233 9.37414 18.6716C9.53868 18.9488 9.62709 19.2646 9.63043 19.587V19.587C9.63043 20.6435 10.4869 21.5 11.5435 21.5H12.7975C13.8505 21.5 14.7055 20.6491 14.7105 19.5961V19.5961C14.7081 19.088 14.9088 18.6 15.2681 18.2407C15.6274 17.8814 16.1155 17.6806 16.6236 17.6831C16.9452 17.6917 17.2596 17.7797 17.5389 17.9394V17.9394C18.4517 18.4653 19.6179 18.1543 20.1476 17.2437V17.2437L20.8066 16.1453C21.0617 15.7075 21.1317 15.186 21.0012 14.6963C20.8706 14.2067 20.5502 13.7893 20.111 13.5366V13.5366C19.6717 13.2839 19.3514 12.8665 19.2208 12.3769C19.0902 11.8873 19.1602 11.3658 19.4153 10.9279C19.5812 10.6383 19.8214 10.3982 20.111 10.2323V10.2323C21.0161 9.70285 21.3264 8.54345 20.8066 7.63272V7.63272V7.62357Z" stroke="#130F26" stroke-width="1.5" stroke-linecap="round" stroke-linejoin="round"/>
<circle cx="12.1751" cy="11.889" r="2.63616" stroke="#130F26" stroke-width="1.5" stroke-linecap="round" stroke-linejoin="round"/>
</svg>
