<svg width="24" height="24" viewBox="0 0 24 24" fill="none" xmlns="http://www.w3.org/2000/svg">
<path fill-rule="evenodd" clip-rule="evenodd" d="M16.5137 21.5H8.1659C5.09954 21.5 2.74714 20.3924 3.41533 15.9348L4.19336 9.89359C4.60526 7.66934 6.02403 6.81808 7.26888 6.81808H17.4474C18.7105 6.81808 20.0469 7.73341 20.5229 9.89359L21.3009 15.9348C21.8684 19.889 19.5801 21.5 16.5137 21.5Z" stroke="#130F26" stroke-width="1.5" stroke-linecap="round" stroke-linejoin="round"/>
<path d="M16.651 6.5984C16.651 4.21233 14.7167 2.27803 12.3307 2.27803V2.27803C11.1817 2.27316 10.0781 2.72619 9.26386 3.53695C8.44967 4.3477 7.99198 5.44939 7.99199 6.5984H7.99199" stroke="#130F26" stroke-width="1.5" stroke-linecap="round" stroke-linejoin="round"/>
<path d="M15.2963 11.1018H15.2506" stroke="#130F26" stroke-width="1.5" stroke-linecap="round" stroke-linejoin="round"/>
<path d="M9.46568 11.1018H9.41991" stroke="#130F26" stroke-width="1.5" stroke-linecap="round" stroke-linejoin="round"/>
</svg>
