<svg width="24" height="24" viewBox="0 0 24 24" fill="none" xmlns="http://www.w3.org/2000/svg">
<path fill-rule="evenodd" clip-rule="evenodd" d="M17.2779 13.8892C17.9526 13.8892 18.5189 14.446 18.4158 15.1123C17.8105 19.0323 14.4547 21.9429 10.4074 21.9429C5.92947 21.9429 2.3 18.3134 2.3 13.8365C2.3 10.1481 5.10211 6.71233 8.25684 5.93549C8.93474 5.76812 9.62947 6.24497 9.62947 6.94286C9.62947 11.6713 9.78842 12.8944 10.6863 13.5597C11.5842 14.225 12.64 13.8892 17.2779 13.8892Z" stroke="#130F26" stroke-width="1.5" stroke-linecap="round" stroke-linejoin="round"/>
<path fill-rule="evenodd" clip-rule="evenodd" d="M21.6925 9.9516C21.7462 6.9137 18.0146 2.01686 13.4673 2.10107C13.1136 2.10739 12.8304 2.40212 12.8146 2.75476C12.6999 5.25265 12.8546 8.48949 12.9409 9.95686C12.9673 10.4137 13.3262 10.7727 13.782 10.799C15.2904 10.8853 18.6452 11.0032 21.1073 10.6305C21.442 10.58 21.6873 10.2895 21.6925 9.9516Z" stroke="#130F26" stroke-width="1.5" stroke-linecap="round" stroke-linejoin="round"/>
</svg>
